name Run_30002_IK.mot
datacolumns 164
datarows 4
range 1.6 1.63
endheader
time	         pelvis_tilt	         pelvis_list	     pelvis_rotation	           pelvis_tx	           pelvis_ty	           pelvis_tz	       hip_flexion_r	     hip_adduction_r	      hip_rotation_r	        knee_angle_r	       ankle_angle_r	       hip_flexion_l	     hip_adduction_l	      hip_rotation_l	        knee_angle_l	       ankle_angle_l	    lumbar_extension	      lumbar_bending	     lumbar_rotation	          arm_flex_r	           arm_add_r	           arm_rot_r	        elbow_flex_r	           pro_sup_r	          arm_flex_l	           arm_add_l	           arm_rot_l	        elbow_flex_l	           pro_sup_l	    subtalar_angle_r	         mtp_angle_r	    subtalar_angle_l	         mtp_angle_l	        wrist_flex_r	         wrist_dev_r	        wrist_flex_l	         wrist_dev_l	             LASI_tx	             LASI_ty	             LASI_tz	             RASI_tx	             RASI_ty	             RASI_tz	             LPSI_tx	             LPSI_ty	             LPSI_tz	             RPSI_tx	             RPSI_ty	             RPSI_tz	             RTH1_tx	             RTH1_ty	             RTH1_tz	             RTH2_tx	             RTH2_ty	             RTH2_tz	             RTH3_tx	             RTH3_ty	             RTH3_tz	             LTH1_tx	             LTH1_ty	             LTH1_tz	             LTH2_tx	             LTH2_ty	             LTH2_tz	             LTH3_tx	             LTH3_ty	             LTH3_tz	             RTB1_tx	             RTB1_ty	             RTB1_tz	             RTB2_tx	             RTB2_ty	             RTB2_tz	             RTB3_tx	             RTB3_ty	             RTB3_tz	             LTB1_tx	             LTB1_ty	             LTB1_tz	             LTB2_tx	             LTB2_ty	             LTB2_tz	             LTB3_tx	             LTB3_ty	             LTB3_tz	             RCAL_tx	             RCAL_ty	             RCAL_tz	             RTOE_tx	             RTOE_ty	             RTOE_tz	             RMT5_tx	             RMT5_ty	             RMT5_tz	             LCAL_tx	             LCAL_ty	             LCAL_tz	             LTOE_tx	             LTOE_ty	             LTOE_tz	             LMT5_tx	             LMT5_ty	             LMT5_tz	             LACR_tx	             LACR_ty	             LACR_tz	             RACR_tx	             RACR_ty	             RACR_tz	             CLAV_tx	             CLAV_ty	             CLAV_tz	               C7_tx	               C7_ty	               C7_tz	             RUA1_tx	             RUA1_ty	             RUA1_tz	             RUA2_tx	             RUA2_ty	             RUA2_tz	             RUA3_tx	             RUA3_ty	             RUA3_tz	             RLEL_tx	             RLEL_ty	             RLEL_tz	             RMEL_tx	             RMEL_ty	             RMEL_tz	             LUA1_tx	             LUA1_ty	             LUA1_tz	             LUA2_tx	             LUA2_ty	             LUA2_tz	             LUA3_tx	             LUA3_ty	             LUA3_tz	             LLEL_tx	             LLEL_ty	             LLEL_tz	             LMEL_tx	             LMEL_ty	             LMEL_tz	      RFAsuperior_tx	      RFAsuperior_ty	      RFAsuperior_tz	        RFAradius_tx	        RFAradius_ty	        RFAradius_tz	          RFAulna_tx	          RFAulna_ty	          RFAulna_tz	      LFAsuperior_tx	      LFAsuperior_ty	      LFAsuperior_tz	        LFAradius_tx	        LFAradius_ty	        LFAradius_tz	          LFAulna_tx	          LFAulna_ty	          LFAulna_tz	
1.6	        -11.20457634	         -1.32157775	          4.58965121	          1.01105546	          1.02931156	         -0.35293744	          1.29163584	          4.56141696	         -1.00074629	        -54.04550113	        -14.13474597	         31.91614642	          6.45805254	          2.56552736	        -10.41738247	          2.04033601	          0.22665849	          1.35302978	          6.93367170	        -22.14691015	        -21.23413530	         -3.71720153	        120.60445609	        113.95206365	        -45.33763505	        -11.57273647	        -15.59943486	        120.84849460	        104.78841253	          0.00000000	          0.00000000	          0.00000000	          0.00000000	          0.00000000	          0.00000000	          0.00000000	          0.00000000	          1.01373571	          1.06704704	         -0.47547802	          1.03684426	          1.06669135	         -0.22908161	          0.86106905	          1.12698066	         -0.39872975	          0.87278306	          1.12241271	         -0.28602226	          0.95764653	          0.94431980	         -0.17686184	          0.87465910	          0.80917905	         -0.19462890	          0.87970152	          0.65347700	         -0.21398668	          0.97346238	          0.94333299	         -0.53009529	          0.95270985	          0.77891312	         -0.47374056	          1.04308756	          0.66611503	         -0.47114232	          0.75772172	          0.43153293	         -0.28035651	          0.68089218	          0.47745848	         -0.20845531	          0.57787273	          0.36353604	         -0.27914183	          1.15978229	          0.46829545	         -0.40302120	          1.09302131	          0.34329637	         -0.44113496	          1.17335010	          0.25301625	         -0.37964651	          0.42639421	          0.41763563	         -0.25742272	          0.46657333	          0.18916130	         -0.32817070	          0.42914736	          0.20653215	         -0.23019758	          1.08395395	          0.09282211	         -0.33511535	          1.31291107	          0.15002118	         -0.33863992	          1.28104092	          0.06779099	         -0.41053412	          0.97328542	          1.56381988	         -0.50423114	          1.04719752	          1.53665415	         -0.19464413	          1.07249221	          1.50431819	         -0.33250315	          0.95076477	          1.57321365	         -0.34050518	          0.95898608	          1.44252091	         -0.10826308	          1.00774716	          1.38230681	         -0.09367044	          0.95484015	          1.30882502	         -0.03509917	          0.93278722	          1.24566471	         -0.00502032	          0.90378457	          1.22308639	         -0.08883929	          0.84607141	          1.50725772	         -0.53182942	          0.84420041	          1.42850184	         -0.56660100	          0.75151021	          1.39163579	         -0.56553307	          0.71194370	          1.33169915	         -0.57802077	          0.72011438	          1.30464595	         -0.49191943	          1.02626988	          1.21241135	         -0.05154122	          1.13073330	          1.22549743	         -0.19752104	          1.14349090	          1.17199114	         -0.15485760	          0.76538447	          1.27054011	         -0.59535836	          0.94964892	          1.23340912	         -0.55965007	          0.92029881	          1.17716901	         -0.59423330	
1.61	        -11.44871924	         -1.20306754	          4.79596128	          1.01063783	          1.02162917	         -0.35310757	          3.60954904	          4.12229139	         -1.47911578	        -59.48377964	        -13.41565668	         32.25176789	          6.70000738	          1.78485568	        -12.70724243	          0.94105464	          0.56358303	          1.01634703	          6.28629032	        -23.13846260	        -20.92994476	         -4.04330667	        118.14562750	        113.35631541	        -44.34214698	        -11.67032313	        -15.45456283	        120.39504435	        104.67988112	          0.00000000	          0.00000000	          0.00000000	          0.00000000	          0.00000000	          0.00000000	          0.00000000	          0.00000000	          1.01371666	          1.05866070	         -0.47444229	          1.03709348	          1.05890236	         -0.23021153	          0.86097519	          1.11927370	         -0.39849195	          0.87274605	          1.11478717	         -0.28582674	          0.95992132	          0.93682667	         -0.17742126	          0.87994136	          0.79964257	         -0.19321413	          0.88990819	          0.64407629	         -0.21208991	          0.97138612	          0.93586683	         -0.53079607	          0.95151704	          0.77174672	         -0.47283772	          1.04216850	          0.65939063	         -0.47071983	          0.76713389	          0.42703149	         -0.27829379	          0.69316237	          0.47780690	         -0.20724972	          0.58377659	          0.36943319	         -0.27616868	          1.15483701	          0.45817048	         -0.40390931	          1.08339279	          0.33526304	         -0.44026883	          1.16157961	          0.24269119	         -0.37947247	          0.43496105	          0.43180489	         -0.25369922	          0.46436982	          0.20157603	         -0.32400436	          0.42768181	          0.22086852	         -0.22632392	          1.06621955	          0.09144071	         -0.33286912	          1.29747947	          0.13122851	         -0.33636919	          1.26068394	          0.05448076	         -0.40911176	          0.97333746	          1.55547977	         -0.50609070	          1.04619658	          1.52947503	         -0.19542394	          1.07214490	          1.49722637	         -0.33342529	          0.95028095	          1.56625498	         -0.34220594	          0.95537243	          1.43698416	         -0.10961554	          1.00325740	          1.37614210	         -0.09386787	          0.94882908	          1.30349221	         -0.03587341	          0.92498331	          1.24152244	         -0.00517899	          0.89676394	          1.21876538	         -0.08892217	          0.84649991	          1.49680019	         -0.53508616	          0.84649929	          1.41741744	         -0.56899860	          0.75455754	          1.37872864	         -0.56878991	          0.71595345	          1.31840543	         -0.58131976	          0.72383987	          1.29173009	         -0.49521037	          1.01781917	          1.20294391	         -0.04905577	          1.12666606	          1.20715149	         -0.19292051	          1.13499293	          1.15403785	         -0.14865054	          0.77024124	          1.25784395	         -0.59798698	          0.95478988	          1.22321119	         -0.56071181	          0.92632933	          1.16654479	         -0.59529927	
1.62	        -11.70145032	         -1.01431841	          5.01684534	          1.01008225	          1.01312829	         -0.35331969	          6.00119757	          3.41962959	         -2.15207870	        -64.77526917	        -12.56672152	         32.84164165	          6.99755567	          0.51215046	        -15.85686399	         -0.25673334	          0.91235229	          0.60064191	          5.54106464	        -24.09152443	        -20.63684355	         -4.39420120	        115.46129580	        112.83902843	        -43.25419473	        -11.81441807	        -15.24428878	        119.78682723	        104.48314025	          0.00000000	          0.00000000	          0.00000000	          0.00000000	          0.00000000	          0.00000000	          0.00000000	          0.00000000	          1.01357652	          1.04952305	         -0.47347388	          1.03736420	          1.05053045	         -0.23120829	          0.86074828	          1.11082334	         -0.39827880	          0.87266461	          1.10647111	         -0.28547644	          0.96164202	          0.92843842	         -0.17833205	          0.88487650	          0.78943655	         -0.19203776	          0.90008094	          0.63421121	         -0.20988436	          0.96970886	          0.92764440	         -0.53030284	          0.94994925	          0.76390841	         -0.47205652	          1.04085476	          0.65193762	         -0.47109769	          0.77786086	          0.42201730	         -0.27510952	          0.70657253	          0.47730796	         -0.20532391	          0.59188466	          0.37428210	         -0.27296683	          1.15015195	          0.44741518	         -0.40518790	          1.07304799	          0.32694289	         -0.43845944	          1.14840270	          0.23199592	         -0.37775333	          0.44559143	          0.44431846	         -0.25083182	          0.46584740	          0.21249909	         -0.31929690	          0.42939130	          0.23409101	         -0.22208021	          1.04521314	          0.09222732	         -0.32886496	          1.27879650	          0.10973023	         -0.33301894	          1.23592627	          0.04138270	         -0.40872342	          0.97338872	          1.54606582	         -0.50804139	          1.04487150	          1.52149516	         -0.19604237	          1.07184530	          1.48929128	         -0.33428273	          0.94945777	          1.55810284	         -0.34394470	          0.95120443	          1.43034826	         -0.11116915	          0.99827394	          1.36889214	         -0.09407736	          0.94230370	          1.29715033	         -0.03667256	          0.91667409	          1.23664582	         -0.00536718	          0.88936691	          1.21350667	         -0.08899089	          0.84706489	          1.48523196	         -0.53851301	          0.84916883	          1.40515199	         -0.57175871	          0.75809107	          1.36452516	         -0.57254421	          0.72054465	          1.30375399	         -0.58512667	          0.72786244	          1.27764009	         -0.49884652	          1.00869653	          1.19288227	         -0.04602755	          1.12144341	          1.18721554	         -0.18726614	          1.12527247	          1.13482769	         -0.14143771	          0.77572569	          1.24369244	         -0.60104787	          0.96037636	          1.21159127	         -0.56177942	          0.93287934	          1.15445775	         -0.59631518	
1.63	        -12.00449656	         -0.67057959	          5.34340596	          1.00879950	          1.00413793	         -0.35358435	          8.54663782	          2.39643985	         -2.93123430	        -69.93255505	        -11.37910075	         33.92493225	          7.55040388	         -0.59517324	        -20.10801839	          0.22151898	          1.21817009	         -0.01580470	          4.60476633	        -24.87897881	        -20.29989559	         -4.77498806	        112.48038327	        112.52585616	        -41.99134388	        -12.00629137	        -15.00505962	        118.98021711	        104.13960625	          0.00000000	          0.00000000	          0.00000000	          0.00000000	          0.00000000	          0.00000000	          0.00000000	          0.00000000	          1.01259414	          1.04042731	         -0.47228635	          1.03750070	          1.04172103	         -0.23170898	          0.85971116	          1.10245485	         -0.39790584	          0.87218135	          1.09776809	         -0.28486520	          0.96250019	          0.91925418	         -0.17969487	          0.88959773	          0.77880159	         -0.19149743	          0.91020872	          0.62403136	         -0.20766916	          0.96835090	          0.91946111	         -0.52877095	          0.94826179	          0.75603544	         -0.47207268	          1.04001773	          0.64466242	         -0.47202200	          0.78985508	          0.41665048	         -0.27109692	          0.72082699	          0.47614194	         -0.20263677	          0.60189852	          0.37804141	         -0.26942111	          1.14676210	          0.43791334	         -0.40490130	          1.06396643	          0.32037621	         -0.43551658	          1.13430748	          0.22289367	         -0.37325134	          0.45769379	          0.45501117	         -0.24878310	          0.47129022	          0.22170730	         -0.31403991	          0.43453126	          0.24583175	         -0.21750525	          1.02137308	          0.09389285	         -0.32360868	          1.25668295	          0.09154593	         -0.32842141	          1.20880949	          0.03405819	         -0.40924065	          0.97351853	          1.53573847	         -0.51014102	          1.04319610	          1.51290459	         -0.19654100	          1.07173899	          1.48075868	         -0.33492591	          0.94835782	          1.54901797	         -0.34581273	          0.94659953	          1.42277461	         -0.11293801	          0.99287622	          1.36071842	         -0.09438872	          0.93536316	          1.28997386	         -0.03766362	          0.90791631	          1.23121823	         -0.00575486	          0.88157511	          1.20746271	         -0.08928002	          0.84783522	          1.47255915	         -0.54221526	          0.85224135	          1.39180328	         -0.57483406	          0.76215813	          1.34912583	         -0.57668753	          0.72575685	          1.28796699	         -0.58938598	          0.73221948	          1.26266088	         -0.50264013	          0.99894973	          1.18233442	         -0.04256629	          1.11502832	          1.16581155	         -0.18054402	          1.11432552	          1.11462709	         -0.13312032	          0.78187985	          1.22828049	         -0.60446045	          0.96641497	          1.19860588	         -0.56292242	          0.93994450	          1.14092592	         -0.59728933	
